# xmcd
#
# Track frame offsets: 
#        150
#        13950
#        29475
#        44625
#        58050
#        78000
#        92250
#        108225
#        122250
#        139950
#
# Disc length: 2085 seconds
#
# Revision: 0
# Processed by: cddbd v1.5.2PL0 Copyright (c) Steve Scherf et al.
# Submitted via: ExactAudioCopy v0.99pb5
#
DISCID=7b08230a
DTITLE=Bobby Charles - Clean Water
DYEAR=1987
DGENRE=Cajun
TTITLE0=Li'l Cajun
TTITLE1=Secrets
TTITLE2=Love in the worse degree
TTITLE3=Cowboys and Indians
TTITLE4=But I do
TTITLE5=Clean Water
TTITLE6=Eyes
TTITLE7=Li'l' Sister
TTITLE8=Party TOwn
TTITLE9=Le Champs Elysee
EXTD=
EXTT0=
EXTT1=
EXTT2=
EXTT3=
EXTT4=
EXTT5=
EXTT6=
EXTT7=
EXTT8=
EXTT9=
PLAYORDER=
